<?xml version="1.0" encoding="utf-8"?>
<!-- Generator: Adobe Illustrator 24.0.1, SVG Export Plug-In . SVG Version: 6.00 Build 0)  -->
<svg version="1.1" id="Layer_1" xmlns="http://www.w3.org/2000/svg" xmlns:xlink="http://www.w3.org/1999/xlink" x="0px" y="0px"
	 viewBox="0 0 283.46 283.46" style="enable-background:new 0 0 283.46 283.46;" xml:space="preserve">
<style type="text/css">
	.st0{fill:#FFFFFF;}
</style>
<g>
	<g>
		<path class="st0" d="M134.42,191.98l-92.63,0.05c-1.94,0-3.51-1.54-3.51-3.44v-51.87c0-1.91,1.58-3.45,3.53-3.45h21.31
			c1.95,0,3.53,1.55,3.53,3.45v24.08c0,1.91,1.58,3.45,3.53,3.45h35.76c1.76,0,3.34-1.21,3.6-2.91c0.24-1.56-0.62-3.05-2.06-3.67
			l-17.96-7.73c-1.28-0.55-2.11-1.79-2.11-3.16v-10.06c0-1.91,1.58-3.45,3.53-3.45h43.51c1.92,0,3.48,1.53,3.48,3.41v51.88
			C137.92,190.45,136.35,191.98,134.42,191.98 M145.2,128.6V74.88c0-2.13-1.96-3.76-4.11-3.41l-0.23,0.04
			c-1.7,0.28-2.95,1.72-2.95,3.41v47.76c0,1.91-1.58,3.45-3.52,3.45h-21.31c-1.95,0-3.53-1.55-3.53-3.45V80.67
			c0-2.13-1.95-3.75-4.09-3.41l-0.23,0.04c-1.7,0.27-2.96,1.72-2.96,3.41v41.98c0,1.91-1.58,3.45-3.53,3.45H77.44
			c-1.95,0-3.53-1.55-3.53-3.45V86.46c0-2.13-1.95-3.76-4.1-3.41l-0.23,0.04c-1.7,0.28-2.95,1.72-2.95,3.41v36.19
			c0,1.91-1.58,3.45-3.53,3.45H41.81c-1.95,0-3.53-1.55-3.53-3.45V92.25c0-2.13-1.95-3.76-4.1-3.41l-12.91,2.1
			c-1.7,0.28-2.95,1.72-2.95,3.41V208.6c0,2.12,1.95,3.74,4.08,3.39l119.85-13.18c1.99-0.32,2.94-1.84,2.94-3.37V128.6z"/>
	</g>
	<g>
		<path class="st0" d="M165.19,122.58v-18.11h-5.33v-6.66h5.33V85.43h7.99v12.38h8.39v6.66h-8.39v18.11c0,1.66,1.2,2.8,2.93,2.8
			h5.79v5.73c-1.2,0.53-3.46,0.93-5.66,0.93C169.58,132.03,165.19,128.24,165.19,122.58"/>
		<path class="st0" d="M185.49,85.43h7.99v14.85c2.2-2.06,5.79-3.4,9.05-3.4c9.12,0,15.18,5.39,15.18,13.52v20.7h-7.99v-19.77
			c0-4.46-3.26-7.39-8.12-7.39c-4.86,0-8.12,2.93-8.12,7.39v19.77h-7.99V85.43z"/>
		<path class="st0" d="M247.95,110c-1.53-4.13-4.93-6.46-9.39-6.46c-4.46,0-7.86,2.33-9.39,6.46H247.95z M220.52,114.46
			c0-10.52,7.19-17.58,18.04-17.58c10.85,0,18.04,7.06,18.04,17.58v1.53l-0.67,0.67h-27.3c0.73,5.26,4.73,8.72,9.92,8.72
			c3.93,0,7.59-2.26,9.12-5.59h8.12c-2.2,7.32-9.12,12.25-17.24,12.25C227.71,132.03,220.52,124.98,220.52,114.46"/>
		<path class="st0" d="M161.49,160.88c0-14.25,9.52-23.7,23.77-23.7c7.79,0,15.65,5.19,19.64,12.92l-8.32,2.06
			c-2.4-4.19-6.92-6.99-11.32-6.99c-8.92,0-14.85,6.26-14.85,15.71c0,9.52,5.93,15.84,14.85,15.84c6.12,0,11.38-4.33,13.05-10.85
			h-15.05v-7.99h24.3v3c0,14.31-8.92,23.83-22.3,23.83C171.01,184.71,161.49,175.19,161.49,160.88"/>
		<rect x="209.7" y="138.11" class="st0" width="7.99" height="45.67"/>
		<g>
			<path class="st0" d="M248.45,167.13c0-6.33-4.13-10.52-10.25-10.52c-6.26,0-10.38,4.19-10.38,10.52
				c0,6.33,4.13,10.52,10.38,10.52C244.32,177.65,248.45,173.46,248.45,167.13 M219.82,167.13c0-10.52,7.06-17.58,17.58-17.58
				c4.06,0,8.52,1.87,11.05,4.59v-16.04h7.99v45.67h-7.99v-3.66c-2.53,2.73-6.99,4.59-11.05,4.59
				C226.88,184.71,219.82,177.65,219.82,167.13"/>
			<path class="st0" d="M264.85,183.81c2.71,0,4.91-2.2,4.91-4.91s-2.2-4.91-4.91-4.91c-2.71,0-4.91,2.2-4.91,4.91
				S262.14,183.81,264.85,183.81"/>
		</g>
	</g>
</g>
</svg>
